<?xml version="1.0" standalone="no"?>
<!DOCTYPE svg PUBLIC "-//W3C//DTD SVG 20010904//EN"
 "http://www.w3.org/TR/2001/REC-SVG-20010904/DTD/svg10.dtd">
<svg version="1.2" baseProfile="tiny" xmlns="http://www.w3.org/2000/svg"
 width="1024.000000pt" height="1024.000000pt" viewBox="0 0 1024.000000 1024.000000"
 preserveAspectRatio="xMidYMid meet">

<g transform="translate(0.000000,1024.000000) scale(0.100000,-0.100000)"
fill="#000000" stroke="none">
<path d="M5055 8465 c-16 -9 -39 -26 -50 -39 -19 -22 -27 -24 -210 -30 -221
-7 -428 -35 -483 -66 -9 -5 -42 -16 -74 -25 -50 -13 -225 -98 -238 -114 -3 -4
-21 -17 -40 -30 -19 -13 -72 -62 -117 -109 -168 -175 -221 -344 -288 -922 -21
-185 -20 -230 9 -257 14 -14 36 -23 55 -23 30 0 31 -1 31 -45 0 -25 -7 -62
-15 -82 -19 -45 -19 -64 1 -106 15 -32 15 -38 -1 -88 -10 -30 -28 -94 -41
-144 -57 -232 -127 -430 -161 -452 -23 -15 -26 -15 -45 4 l-20 21 25 43 c34
58 77 243 77 330 0 38 4 69 9 69 5 0 15 17 21 38 7 20 20 46 30 57 32 35 70
141 70 193 0 62 -26 139 -54 157 -35 22 -102 28 -156 14 -27 -7 -51 -11 -53
-8 -2 2 0 47 4 99 22 269 40 744 30 764 -19 36 -41 149 -41 208 0 48 -4 61
-25 82 -14 14 -28 40 -31 58 -3 18 -12 53 -19 78 -7 25 -16 62 -20 82 -10 65
-90 103 -127 61 -43 -50 -136 -281 -149 -369 -5 -36 -13 -74 -19 -83 -5 -10
-19 -51 -30 -92 -25 -84 -34 -197 -51 -619 -6 -162 -16 -305 -20 -318 -13 -34
-42 -24 -51 18 -8 36 -31 267 -49 490 -12 158 -44 378 -65 450 -8 30 -27 100
-41 155 -17 67 -33 109 -49 126 -13 14 -24 32 -24 40 0 25 -70 202 -87 221
-11 12 -30 18 -59 18 -52 0 -65 -16 -84 -100 -7 -30 -21 -76 -31 -102 -11 -26
-19 -53 -19 -61 0 -8 -9 -26 -20 -40 -15 -18 -20 -40 -20 -82 0 -59 -11 -116
-37 -201 -14 -46 -15 -69 -5 -195 17 -197 39 -437 52 -539 5 -47 15 -141 20
-209 10 -123 10 -125 -13 -150 -49 -55 -61 -84 -65 -167 -4 -65 -1 -89 16
-126 17 -40 18 -49 6 -84 -26 -75 -10 -189 33 -236 12 -13 17 -40 19 -91 3
-105 19 -150 73 -200 26 -24 55 -48 65 -54 15 -8 20 -25 23 -74 4 -77 19 -149
44 -209 10 -25 25 -96 34 -159 25 -175 45 -211 122 -211 67 0 165 28 186 52
l18 21 38 -21 c26 -15 56 -22 89 -22 60 0 90 12 115 46 20 26 51 180 68 329 9
79 13 93 37 112 30 25 71 26 83 3 4 -8 12 -33 19 -56 11 -37 9 -47 -20 -120
-17 -43 -35 -86 -40 -94 -17 -28 -52 -105 -78 -170 -30 -75 -36 -190 -13 -231
21 -37 191 -188 236 -209 22 -10 67 -31 100 -47 33 -16 128 -50 210 -77 83
-26 173 -58 200 -71 58 -26 79 -33 200 -70 50 -15 124 -38 165 -52 76 -26 210
-65 355 -103 44 -11 103 -27 130 -35 28 -8 57 -14 65 -14 41 -1 100 -12 140
-26 24 -9 52 -14 62 -12 10 3 21 1 24 -4 3 -5 18 -9 34 -9 16 0 41 -5 57 -11
15 -6 60 -12 98 -14 39 -2 84 -8 100 -13 68 -23 668 -37 860 -19 44 4 168 11
275 17 107 5 211 15 230 21 19 6 89 26 155 44 66 18 144 39 172 48 58 17 172
77 193 102 7 8 18 15 26 15 25 0 92 74 103 115 31 111 35 155 24 243 -22 172
-154 369 -318 473 -42 27 -209 109 -221 109 -4 0 -38 9 -76 21 -56 16 -80 30
-119 69 -47 45 -93 66 -122 54 -17 -6 -41 21 -32 36 3 5 15 10 25 10 24 0 158
53 230 90 45 24 59 27 75 17 11 -6 60 -12 110 -12 81 0 94 3 131 27 35 22 56
27 135 32 52 3 103 6 114 7 11 0 40 -4 65 -11 57 -15 241 -6 278 14 15 8 56
29 93 46 85 40 145 99 181 179 16 35 41 82 56 104 25 38 27 49 28 151 1 93 5
119 24 161 27 59 32 168 10 234 -11 33 -11 49 -2 75 31 85 1 203 -64 248 -97
67 -117 73 -256 73 -70 0 -128 0 -128 0 0 0 14 54 31 120 28 110 30 129 24
222 -8 118 -37 192 -100 257 -78 79 -197 100 -281 51 -97 -57 -113 -118 -90
-333 13 -119 14 -170 7 -210 -13 -63 -61 -157 -99 -192 -61 -56 -165 -188
-188 -239 -14 -30 -33 -95 -42 -145 -16 -83 -19 -91 -41 -94 -73 -11 -146
-103 -178 -227 -18 -69 -19 -69 -92 -122 -41 -28 -88 -57 -105 -64 -17 -6 -40
-15 -51 -20 -118 -50 -172 -53 -214 -11 -16 15 -32 43 -35 63 -6 35 -5 36 34
48 104 31 195 184 244 411 3 15 19 32 41 44 63 34 106 121 87 175 l-10 28 71
7 c176 16 289 136 232 245 -26 51 -160 138 -250 162 -16 5 -72 20 -124 33 -52
14 -95 27 -97 29 -4 4 14 389 21 442 3 22 1 94 -5 159 -10 111 -13 123 -52
195 -23 42 -59 92 -81 111 -22 19 -52 45 -66 58 -27 23 -195 112 -212 112 -6
0 -27 8 -48 18 -77 37 -340 107 -502 133 -71 12 -78 15 -94 45 -11 21 -32 39
-56 48 -50 20 -145 20 -184 1z m-689 -581 c-4 -9 -9 -15 -11 -12 -3 3 -3 13 1
22 4 9 9 15 11 12 3 -3 3 -13 -1 -22z m-56 -274 c0 -5 -5 -10 -11 -10 -5 0 -7
5 -4 10 3 6 8 10 11 10 2 0 4 -4 4 -10z m790 -154 c0 -3 -4 -8 -10 -11 -5 -3
-10 -1 -10 4 0 6 5 11 10 11 6 0 10 -2 10 -4z m-237 -153 c-13 -2 -33 -2 -45
0 -13 2 -3 4 22 4 25 0 35 -2 23 -4z m320 0 c-13 -2 -33 -2 -45 0 -13 2 -3 4
22 4 25 0 35 -2 23 -4z m85 -10 c-10 -2 -28 -2 -40 0 -13 2 -5 4 17 4 22 1 32
-1 23 -4z m-643 -312 c61 -6 162 -11 225 -12 63 -2 129 -6 145 -10 17 -4 53
-10 80 -14 39 -6 46 -9 30 -16 -18 -7 -17 -8 7 -8 14 -1 28 4 30 11 4 11 115
1 318 -28 19 -3 94 -11 165 -19 163 -18 252 -31 335 -49 l65 -14 -151 -1
c-112 -1 -163 -5 -195 -17 -24 -9 -84 -18 -134 -21 -89 -5 -91 -5 -204 41 -62
25 -118 46 -125 46 -6 0 -24 7 -41 16 -16 9 -54 18 -82 21 -29 3 -53 10 -53
14 0 5 -19 9 -42 9 -24 0 -90 7 -148 15 -114 16 -446 19 -520 6 -164 -30 -277
-54 -293 -62 -28 -15 -299 -79 -309 -73 -10 6 -10 35 0 51 5 7 30 18 58 24 27
6 78 17 114 24 65 14 109 25 186 44 22 6 101 13 174 16 74 3 136 8 139 10 7 8
106 6 226 -4z m-167 -177 c36 -10 25 -24 -17 -24 -38 0 -57 10 -44 24 8 8 31
8 61 0z m-210 -175 c8 -12 22 -71 33 -133 10 -61 24 -124 30 -139 14 -34 11
-37 -38 -44 -41 -5 -65 -21 -101 -67 -20 -26 -31 -76 -16 -76 3 0 25 16 49 36
35 28 55 36 100 41 54 6 58 4 93 -29 75 -71 167 -125 252 -148 65 -18 279 -14
343 6 71 22 127 46 127 55 0 4 18 16 40 27 40 20 120 100 120 121 0 6 4 11 8
11 10 0 92 153 92 172 0 29 31 76 53 82 33 9 42 -11 56 -127 9 -74 19 -116 37
-146 31 -55 30 -58 -6 -66 -35 -8 -137 -73 -145 -93 -6 -15 -9 -16 90 14 136
42 247 33 304 -23 25 -26 8 -90 -36 -129 -21 -19 -48 -34 -60 -34 -12 0 -25
-4 -28 -10 -3 -5 -15 -10 -26 -10 -10 0 -19 -4 -19 -10 0 -13 -84 -12 -135 1
-82 21 -85 22 -85 8 0 -14 78 -69 99 -69 17 0 13 -17 -5 -24 -54 -21 -387 12
-574 56 -114 26 -218 63 -316 109 -45 22 -84 39 -88 39 -14 0 -75 54 -70 62 3
4 18 8 35 8 38 0 37 14 -5 39 -48 30 -136 29 -179 -1 -49 -36 -57 -44 -72 -89
-26 -74 -12 -111 20 -50 25 50 39 43 52 -23 39 -191 146 -410 246 -503 84 -77
126 -113 133 -113 3 0 40 -16 82 -36 74 -35 82 -37 213 -42 164 -6 216 5 313
62 64 38 246 205 246 225 0 5 6 16 13 23 13 13 68 87 146 197 24 33 50 61 57
61 8 0 14 5 14 10 0 6 8 10 17 10 18 0 83 57 83 73 0 4 6 15 14 23 8 7 16 19
18 26 3 9 19 8 69 -3 l64 -16 0 -59 0 -59 -46 3 c-33 2 -56 -2 -80 -17 -19
-12 -40 -24 -48 -28 -42 -20 -85 -95 -100 -176 -11 -63 -81 -138 -121 -131
-61 12 -154 -58 -165 -125 -12 -70 3 -122 45 -162 65 -62 161 -70 247 -19 l32
19 0 -64 c0 -88 16 -116 82 -147 63 -29 99 -30 169 -5 55 19 68 29 88 62 19
33 22 50 19 102 -7 89 21 107 80 53 40 -36 53 -87 42 -161 -8 -63 -20 -93 -98
-249 -32 -63 -68 -142 -81 -175 -35 -92 -41 -103 -61 -108 -16 -4 -19 1 -19
29 0 42 -18 44 -33 5 -6 -16 -20 -32 -31 -35 -33 -9 -80 -7 -96 4 -13 9 -13
12 1 23 24 19 43 100 30 126 -12 21 -64 29 -86 13 -28 -20 -75 -85 -75 -103 0
-50 -63 -61 -222 -39 -40 6 -113 14 -163 19 -49 6 -114 17 -143 26 -52 16 -53
17 -37 35 20 22 14 67 -11 77 -8 3 -54 1 -102 -4 -79 -9 -142 -2 -142 14 0 3
12 41 27 85 31 92 26 111 -29 116 -52 4 -124 -56 -163 -137 l-30 -61 -40 4
c-22 2 -80 16 -130 31 -49 15 -112 32 -140 38 -27 6 -55 18 -61 27 -7 8 -24
29 -38 45 -15 17 -26 42 -26 58 0 27 26 101 56 160 8 16 14 49 14 73 l0 44
-40 0 c-42 0 -119 -43 -120 -67 0 -7 -3 -13 -7 -13 -5 0 -19 -17 -33 -38 -14
-20 -30 -43 -37 -50 -7 -7 -20 -26 -30 -42 -9 -17 -21 -30 -25 -30 -4 0 -8 -6
-8 -14 0 -22 -24 -25 -74 -9 l-47 16 7 41 c9 52 6 96 -8 113 -7 9 -41 13 -114
13 -93 0 -104 2 -114 20 -14 27 12 86 69 158 43 54 71 108 71 137 0 8 -9 24
-21 36 -17 17 -28 19 -62 14 -22 -4 -47 -14 -55 -21 -14 -15 -60 -18 -78 -6
-22 15 -33 49 -25 78 13 44 33 86 57 119 11 17 24 38 27 48 4 9 11 17 17 17 5
0 10 5 10 11 0 6 9 21 19 33 97 106 114 138 88 164 -15 14 -22 14 -68 3 -48
-13 -53 -12 -66 5 -35 49 1 115 148 272 33 35 66 77 75 94 8 16 23 37 32 47
41 43 52 63 52 94 0 37 -8 51 -33 60 -24 9 -84 -19 -92 -42 -7 -24 -124 -141
-141 -141 -8 0 -14 -6 -14 -12 0 -10 -3 -9 -9 1 -5 7 -5 27 0 45 4 17 15 67
24 111 21 109 39 160 53 158 7 -2 12 1 12 6 0 14 50 17 275 19 194 2 201 1
213 -19z m2136 -45 c9 -3 16 -10 16 -15 0 -14 -44 -10 -66 6 -18 14 -18 14 8
15 14 0 33 -3 42 -6z m-1784 -695 c52 -21 107 -41 123 -45 15 -3 30 -10 33
-15 3 -5 18 -9 33 -9 16 0 44 -7 63 -15 19 -7 55 -15 79 -16 24 -1 60 -8 80
-15 29 -10 337 -32 362 -26 18 5 4 -22 -25 -49 -51 -46 -104 -65 -203 -72 -92
-7 -119 -3 -285 41 -122 33 -291 112 -343 161 -32 29 -57 72 -57 96 0 20 8 18
140 -36z m1334 -471 c18 -25 21 -58 6 -58 -5 0 -12 -11 -16 -24 -4 -18 -15
-26 -41 -31 -20 -3 -47 -14 -61 -23 -24 -16 -25 -16 -13 5 6 12 11 35 11 52 0
44 18 76 48 88 41 16 49 15 66 -9z m-2559 -130 c23 -10 26 -17 23 -52 -3 -37
-5 -41 -30 -39 -35 2 -78 40 -70 62 16 41 35 48 77 29z m3323 -65 c18 -8 49
-17 68 -20 18 -3 34 -10 34 -14 0 -5 6 -9 14 -9 12 0 94 -37 163 -74 56 -29
164 -139 189 -192 l26 -56 -26 -27 c-15 -16 -57 -43 -94 -61 -37 -19 -69 -37
-72 -41 -3 -4 -21 -11 -40 -17 -44 -13 -155 -51 -195 -67 -16 -7 -48 -16 -70
-20 -22 -3 -78 -17 -125 -30 -109 -30 -384 -64 -457 -56 -6 0 -9 10 -6 24 6
22 55 129 72 157 76 122 161 329 161 393 l0 37 55 0 c55 0 135 24 135 41 0 5
6 9 13 9 7 0 20 11 30 24 16 20 25 24 55 19 20 -3 52 -12 70 -20z m-3426 -230
c35 -20 68 -41 73 -45 33 -28 103 -68 117 -68 9 0 19 -4 22 -9 3 -5 17 -12 32
-15 14 -4 54 -20 89 -37 35 -16 92 -38 127 -48 35 -10 90 -28 123 -39 107 -38
218 -73 310 -97 50 -13 121 -36 158 -50 37 -14 78 -25 90 -25 13 0 27 -4 32
-9 6 -5 42 -18 80 -29 39 -11 108 -31 155 -45 47 -14 108 -30 137 -36 29 -6
84 -22 123 -35 77 -27 195 -50 365 -71 61 -8 125 -19 144 -24 18 -6 68 -15
110 -21 42 -6 94 -14 116 -17 71 -11 627 -7 670 5 22 6 60 16 85 23 25 7 47
15 50 19 3 3 57 17 120 30 63 13 136 31 161 41 25 10 84 27 130 38 89 21 174
54 224 85 17 11 46 29 65 41 20 12 50 26 67 29 30 7 32 6 38 -27 8 -43 -26
-129 -60 -147 -12 -7 -29 -23 -36 -36 -7 -13 -24 -32 -38 -41 -50 -33 -181
-92 -218 -98 -21 -4 -60 -15 -88 -25 -27 -9 -77 -20 -110 -24 -33 -4 -85 -13
-116 -21 -88 -23 -290 -35 -307 -19 -11 11 -18 11 -35 2 -76 -41 -777 -44
-912 -4 -28 9 -80 20 -115 25 -36 6 -114 20 -175 31 -60 12 -155 30 -210 40
-55 10 -127 25 -160 35 -33 9 -67 17 -75 19 -37 6 -70 19 -70 27 0 5 -7 9 -15
9 -8 0 -24 9 -35 20 -11 11 -26 20 -34 20 -8 0 -17 4 -20 9 -3 5 -23 12 -43
15 -21 4 -51 9 -67 12 -20 5 -26 3 -21 -6 4 -7 -6 -5 -25 5 -22 11 -36 13 -42
7 -7 -7 -21 -6 -42 3 -17 7 -51 21 -76 30 -25 9 -62 25 -82 36 -20 10 -45 19
-55 19 -20 0 -108 32 -119 43 -4 4 -17 7 -28 7 -12 0 -34 7 -50 15 -16 9 -35
14 -41 12 -5 -3 -37 8 -70 24 -33 16 -68 29 -77 29 -9 0 -29 6 -45 14 -72 37
-172 76 -191 76 -12 0 -22 5 -22 10 0 6 -6 10 -12 10 -14 1 -66 47 -113 101
-16 19 -34 34 -38 34 -11 0 -37 72 -37 102 0 22 24 53 40 53 5 0 37 -17 72
-37z m1138 -633 c8 -5 11 -10 5 -10 -5 0 -17 5 -25 10 -8 5 -10 10 -5 10 6 0
17 -5 25 -10z"/>
<path d="M5180 6920 c-13 -8 -12 -10 3 -10 9 0 17 5 17 10 0 12 -1 12 -20 0z"/>
<path d="M3885 6138 c-61 -66 -72 -117 -30 -144 23 -15 27 -15 70 10 47 28 71
75 63 126 -2 21 -9 25 -43 27 -30 1 -45 -4 -60 -19z"/>
<path d="M3990 5843 c-33 -12 -131 -128 -160 -188 -36 -76 -37 -100 -6 -120
21 -14 28 -14 58 -2 42 19 118 84 118 103 0 8 4 14 9 14 18 0 71 107 71 143 0
48 -38 69 -90 50z"/>
<path d="M4073 5533 c-59 -33 -126 -107 -168 -186 -29 -54 -34 -122 -9 -131
34 -13 71 -5 100 22 17 15 42 36 57 47 15 11 27 23 27 27 0 4 13 21 30 38 27
28 60 110 60 151 0 22 -26 49 -48 49 -10 0 -32 -8 -49 -17z"/>
<path d="M4496 5341 c-6 -9 12 -33 74 -104 27 -31 95 -70 175 -100 69 -26 350
-31 368 -6 7 8 20 18 30 22 9 3 17 14 17 22 0 13 -6 15 -32 10 -18 -4 -34 -11
-36 -16 -9 -23 -302 -1 -302 23 0 4 -7 8 -16 8 -21 0 -154 71 -217 116 -52 37
-53 38 -61 25z"/>
<path d="M6189 5143 c0 -5 -3 -20 -5 -35 -2 -14 0 -29 6 -33 13 -8 31 39 24
60 -6 15 -23 21 -25 8z"/>
<path d="M5321 5096 c-8 -9 -17 -16 -22 -16 -5 0 -22 -14 -37 -31 -15 -17 -35
-40 -44 -50 -10 -10 -18 -23 -18 -29 0 -5 -4 -10 -8 -10 -11 0 -43 -68 -49
-103 -2 -16 1 -35 8 -43 13 -15 49 -19 49 -5 0 5 10 11 23 15 62 15 197 177
197 235 0 34 -3 37 -51 46 -26 5 -39 2 -48 -9z"/>
<path d="M4540 5082 c-81 -37 -129 -143 -79 -175 28 -18 105 28 142 85 23 37
22 53 -9 77 -29 23 -31 23 -54 13z"/>
<path d="M6132 4985 c-16 -35 -15 -65 3 -65 12 0 35 54 35 83 0 18 -28 5 -38
-18z"/>
<path d="M5643 4908 c-60 -52 -82 -81 -89 -115 -9 -49 2 -73 37 -73 91 0 195
134 153 198 -21 31 -57 28 -101 -10z"/>
<path d="M6071 4851 c-13 -23 -14 -61 -3 -61 15 0 32 24 32 46 0 31 -17 39
-29 15z"/>
<path d="M6010 4704 c-23 -59 1 -77 26 -19 18 43 18 45 -1 45 -9 0 -20 -12
-25 -26z"/>
<path d="M5311 4681 c-26 -26 -17 -61 15 -61 25 0 55 44 47 68 -7 18 -40 15
-62 -7z"/>
<path d="M6620 5068 c-21 -35 -15 -59 24 -90 30 -25 92 -24 106 1 31 58 -7
121 -73 121 -31 0 -41 -5 -57 -32z"/>
<path d="M6480 4910 c0 -5 -4 -10 -10 -10 -36 0 -90 -86 -90 -142 0 -81 97
-75 155 9 29 43 34 115 11 139 -17 16 -66 19 -66 4z"/>
<path d="M4160 4449 c0 -5 5 -7 10 -4 6 3 10 8 10 11 0 2 -4 4 -10 4 -5 0 -10
-5 -10 -11z"/>
</g>
</svg>
